<svg width="430" height="932" viewBox="0 0 430 932" fill="none" xmlns="http://www.w3.org/2000/svg">
<g clip-path="url(#clip0_71_461)">
<rect width="430" height="932" fill="white"/>
<rect width="430" height="497" fill="#D9D9D9"/>
<path d="M36.4091 538V526.364H40.3409C41.2538 526.364 42 526.528 42.5795 526.858C43.1629 527.184 43.5947 527.625 43.875 528.182C44.1553 528.739 44.2955 529.36 44.2955 530.045C44.2955 530.731 44.1553 531.354 43.875 531.915C43.5985 532.475 43.1705 532.922 42.5909 533.256C42.0114 533.585 41.2689 533.75 40.3636 533.75H37.5455V532.5H40.3182C40.9432 532.5 41.4451 532.392 41.8239 532.176C42.2027 531.96 42.4773 531.669 42.6477 531.301C42.822 530.93 42.9091 530.511 42.9091 530.045C42.9091 529.58 42.822 529.163 42.6477 528.795C42.4773 528.428 42.2008 528.14 41.8182 527.932C41.4356 527.72 40.928 527.614 40.2955 527.614H37.8182V538H36.4091ZM46.3835 538V529.273H47.679V530.591H47.7699C47.929 530.159 48.2169 529.809 48.6335 529.54C49.0502 529.271 49.5199 529.136 50.0426 529.136C50.1411 529.136 50.2642 529.138 50.4119 529.142C50.5597 529.146 50.6714 529.152 50.7472 529.159V530.523C50.7017 530.511 50.5975 530.494 50.4347 530.472C50.2756 530.445 50.107 530.432 49.929 530.432C49.5047 530.432 49.1259 530.521 48.7926 530.699C48.4631 530.873 48.2017 531.116 48.0085 531.426C47.8191 531.733 47.7244 532.083 47.7244 532.477V538H46.3835ZM55.6165 538.182C54.8286 538.182 54.1373 537.994 53.5426 537.619C52.9517 537.244 52.4896 536.72 52.1562 536.045C51.8267 535.371 51.6619 534.583 51.6619 533.682C51.6619 532.773 51.8267 531.979 52.1562 531.301C52.4896 530.623 52.9517 530.097 53.5426 529.722C54.1373 529.347 54.8286 529.159 55.6165 529.159C56.4044 529.159 57.0938 529.347 57.6847 529.722C58.2794 530.097 58.7415 530.623 59.071 531.301C59.4044 531.979 59.571 532.773 59.571 533.682C59.571 534.583 59.4044 535.371 59.071 536.045C58.7415 536.72 58.2794 537.244 57.6847 537.619C57.0938 537.994 56.4044 538.182 55.6165 538.182ZM55.6165 536.977C56.215 536.977 56.7074 536.824 57.0938 536.517C57.4801 536.21 57.7661 535.807 57.9517 535.307C58.1373 534.807 58.2301 534.265 58.2301 533.682C58.2301 533.098 58.1373 532.555 57.9517 532.051C57.7661 531.547 57.4801 531.14 57.0938 530.83C56.7074 530.519 56.215 530.364 55.6165 530.364C55.018 530.364 54.5256 530.519 54.1392 530.83C53.7528 531.14 53.4669 531.547 53.2812 532.051C53.0956 532.555 53.0028 533.098 53.0028 533.682C53.0028 534.265 53.0956 534.807 53.2812 535.307C53.4669 535.807 53.7528 536.21 54.1392 536.517C54.5256 536.824 55.018 536.977 55.6165 536.977ZM64.9134 538.182C64.1861 538.182 63.544 537.998 62.9872 537.631C62.4304 537.259 61.9948 536.737 61.6804 536.062C61.366 535.384 61.2088 534.583 61.2088 533.659C61.2088 532.742 61.366 531.947 61.6804 531.273C61.9948 530.598 62.4323 530.078 62.9929 529.71C63.5535 529.343 64.2012 529.159 64.9361 529.159C65.5043 529.159 65.9531 529.254 66.2827 529.443C66.616 529.629 66.8698 529.841 67.044 530.08C67.2221 530.314 67.3603 530.508 67.4588 530.659H67.5724V526.364H68.9134V538H67.6179V536.659H67.4588C67.3603 536.818 67.2202 537.019 67.0384 537.261C66.8565 537.5 66.5971 537.714 66.2599 537.903C65.9228 538.089 65.474 538.182 64.9134 538.182ZM65.0952 536.977C65.633 536.977 66.0876 536.837 66.4588 536.557C66.83 536.273 67.1122 535.881 67.3054 535.381C67.4986 534.877 67.5952 534.295 67.5952 533.636C67.5952 532.985 67.5005 532.415 67.3111 531.926C67.1217 531.434 66.8414 531.051 66.4702 530.778C66.099 530.502 65.6406 530.364 65.0952 530.364C64.527 530.364 64.0535 530.509 63.6747 530.801C63.2997 531.089 63.0175 531.481 62.8281 531.977C62.6425 532.47 62.5497 533.023 62.5497 533.636C62.5497 534.258 62.6444 534.822 62.8338 535.33C63.027 535.833 63.3111 536.235 63.6861 536.534C64.0649 536.83 64.5346 536.977 65.0952 536.977ZM77.0554 534.432V529.273H78.3963V538H77.0554V536.523H76.9645C76.7599 536.966 76.4418 537.343 76.0099 537.653C75.5781 537.96 75.0327 538.114 74.3736 538.114C73.8281 538.114 73.3433 537.994 72.919 537.756C72.4948 537.513 72.1615 537.15 71.919 536.665C71.6766 536.176 71.5554 535.561 71.5554 534.818V529.273H72.8963V534.727C72.8963 535.364 73.0743 535.871 73.4304 536.25C73.7902 536.629 74.2486 536.818 74.8054 536.818C75.1387 536.818 75.4777 536.733 75.8224 536.562C76.1709 536.392 76.4626 536.131 76.6974 535.778C76.9361 535.426 77.0554 534.977 77.0554 534.432ZM84.3977 538.182C83.5795 538.182 82.875 537.989 82.2841 537.602C81.6932 537.216 81.2386 536.684 80.9205 536.006C80.6023 535.328 80.4432 534.553 80.4432 533.682C80.4432 532.795 80.6061 532.013 80.9318 531.335C81.2614 530.653 81.7197 530.121 82.3068 529.739C82.8977 529.352 83.5871 529.159 84.375 529.159C84.9886 529.159 85.5417 529.273 86.0341 529.5C86.5265 529.727 86.9299 530.045 87.2443 530.455C87.5587 530.864 87.7538 531.341 87.8295 531.886H86.4886C86.3864 531.489 86.1591 531.136 85.8068 530.83C85.4583 530.519 84.9886 530.364 84.3977 530.364C83.875 530.364 83.4167 530.5 83.0227 530.773C82.6326 531.042 82.3277 531.422 82.108 531.915C81.892 532.403 81.7841 532.977 81.7841 533.636C81.7841 534.311 81.8902 534.898 82.1023 535.398C82.3182 535.898 82.6212 536.286 83.0114 536.562C83.4053 536.839 83.8674 536.977 84.3977 536.977C84.7462 536.977 85.0625 536.917 85.3466 536.795C85.6307 536.674 85.8712 536.5 86.0682 536.273C86.2652 536.045 86.4053 535.773 86.4886 535.455H87.8295C87.7538 535.97 87.5663 536.434 87.267 536.847C86.9716 537.256 86.5795 537.581 86.0909 537.824C85.6061 538.062 85.0417 538.182 84.3977 538.182ZM93.5852 529.273V530.409H89.0625V529.273H93.5852ZM90.3807 527.182H91.7216V535.5C91.7216 535.879 91.7765 536.163 91.8864 536.352C92 536.538 92.1439 536.663 92.3182 536.727C92.4962 536.788 92.6837 536.818 92.8807 536.818C93.0284 536.818 93.1496 536.811 93.2443 536.795C93.339 536.777 93.4148 536.761 93.4716 536.75L93.7443 537.955C93.6534 537.989 93.5265 538.023 93.3636 538.057C93.2008 538.095 92.9943 538.114 92.7443 538.114C92.3655 538.114 91.9943 538.032 91.6307 537.869C91.2708 537.706 90.9716 537.458 90.733 537.125C90.4981 536.792 90.3807 536.371 90.3807 535.864V527.182ZM101.628 531.227L100.423 531.568C100.348 531.367 100.236 531.172 100.088 530.983C99.9441 530.79 99.7472 530.631 99.4972 530.506C99.2472 530.381 98.9271 530.318 98.5369 530.318C98.0028 530.318 97.5578 530.441 97.2017 530.688C96.8494 530.93 96.6733 531.239 96.6733 531.614C96.6733 531.947 96.7945 532.21 97.0369 532.403C97.2794 532.597 97.6581 532.758 98.1733 532.886L99.4688 533.205C100.249 533.394 100.83 533.684 101.213 534.074C101.596 534.46 101.787 534.958 101.787 535.568C101.787 536.068 101.643 536.515 101.355 536.909C101.071 537.303 100.673 537.614 100.162 537.841C99.6506 538.068 99.0559 538.182 98.3778 538.182C97.4877 538.182 96.7509 537.989 96.1676 537.602C95.5843 537.216 95.215 536.652 95.0597 535.909L96.3324 535.591C96.4536 536.061 96.6828 536.413 97.0199 536.648C97.3608 536.883 97.8059 537 98.3551 537C98.9801 537 99.4763 536.867 99.8438 536.602C100.215 536.333 100.401 536.011 100.401 535.636C100.401 535.333 100.295 535.08 100.082 534.875C99.8703 534.667 99.5445 534.511 99.1051 534.409L97.6506 534.068C96.8513 533.879 96.2642 533.585 95.8892 533.188C95.518 532.786 95.3324 532.284 95.3324 531.682C95.3324 531.189 95.4706 530.754 95.7472 530.375C96.0275 529.996 96.4081 529.699 96.8892 529.483C97.3741 529.267 97.9233 529.159 98.5369 529.159C99.4006 529.159 100.079 529.348 100.571 529.727C101.067 530.106 101.42 530.606 101.628 531.227Z" fill="black"/>
<rect x="35.5" y="560.5" width="109" height="128" rx="4.5" stroke="black"/>
<rect x="160.5" y="560.5" width="109" height="128" rx="4.5" stroke="black"/>
<rect x="285.5" y="560.5" width="109" height="128" rx="4.5" stroke="black"/>
<path d="M141.542 170.125H254.75C261.679 170.125 268.324 172.877 273.223 177.777C278.123 182.676 280.875 189.321 280.875 196.25V309.458C280.875 316.387 278.123 323.032 273.223 327.931C268.324 332.831 261.679 335.583 254.75 335.583H141.542C134.613 335.583 127.968 332.831 123.069 327.931C118.169 323.032 115.417 316.387 115.417 309.458V196.25C115.417 189.321 118.169 182.676 123.069 177.777C127.968 172.877 134.613 170.125 141.542 170.125ZM141.542 178.833C136.923 178.833 132.493 180.668 129.226 183.935C125.96 187.201 124.125 191.631 124.125 196.25V297.18L161.484 259.734L183.255 281.505L226.796 237.963L272.167 283.333V196.25C272.167 191.631 270.332 187.201 267.066 183.935C263.799 180.668 259.369 178.833 254.75 178.833H141.542ZM183.255 293.87L161.484 272.1L124.125 309.458C124.125 314.078 125.96 318.508 129.226 321.774C132.493 325.04 136.923 326.875 141.542 326.875H254.75C259.369 326.875 263.799 325.04 267.066 321.774C270.332 318.508 272.167 314.078 272.167 309.458V295.612L226.796 250.329L183.255 293.87ZM163.313 196.25C169.087 196.25 174.624 198.544 178.707 202.627C182.79 206.709 185.083 212.247 185.083 218.021C185.083 223.795 182.79 229.332 178.707 233.415C174.624 237.498 169.087 239.792 163.313 239.792C157.539 239.792 152.001 237.498 147.918 233.415C143.835 229.332 141.542 223.795 141.542 218.021C141.542 212.247 143.835 206.709 147.918 202.627C152.001 198.544 157.539 196.25 163.313 196.25ZM163.313 204.958C159.848 204.958 156.526 206.335 154.076 208.784C151.626 211.234 150.25 214.556 150.25 218.021C150.25 221.485 151.626 224.808 154.076 227.257C156.526 229.707 159.848 231.083 163.313 231.083C166.777 231.083 170.099 229.707 172.549 227.257C174.999 224.808 176.375 221.485 176.375 218.021C176.375 214.556 174.999 211.234 172.549 208.784C170.099 206.335 166.777 204.958 163.313 204.958Z" fill="black"/>
<rect y="862" width="430" height="70" fill="#D9D9D9"/>
<path d="M195.636 890.364V902H194.273L187.932 892.864H187.818V902H186.409V890.364H187.773L194.136 899.523H194.25V890.364H195.636ZM200.842 902.205C200.289 902.205 199.787 902.1 199.337 901.892C198.886 901.68 198.528 901.375 198.263 900.977C197.998 900.576 197.865 900.091 197.865 899.523C197.865 899.023 197.964 898.617 198.161 898.307C198.357 897.992 198.621 897.746 198.95 897.568C199.28 897.39 199.643 897.258 200.041 897.17C200.443 897.08 200.846 897.008 201.251 896.955C201.782 896.886 202.212 896.835 202.541 896.801C202.875 896.763 203.117 896.701 203.268 896.614C203.424 896.527 203.501 896.375 203.501 896.159V896.114C203.501 895.553 203.348 895.117 203.041 894.807C202.738 894.496 202.278 894.341 201.661 894.341C201.02 894.341 200.518 894.481 200.155 894.761C199.791 895.042 199.536 895.341 199.388 895.659L198.115 895.205C198.342 894.674 198.645 894.261 199.024 893.966C199.407 893.667 199.823 893.458 200.274 893.341C200.729 893.22 201.176 893.159 201.615 893.159C201.895 893.159 202.217 893.193 202.581 893.261C202.948 893.326 203.303 893.46 203.643 893.665C203.988 893.869 204.274 894.178 204.501 894.591C204.729 895.004 204.842 895.557 204.842 896.25V902H203.501V900.818H203.433C203.342 901.008 203.191 901.21 202.979 901.426C202.767 901.642 202.484 901.826 202.132 901.977C201.78 902.129 201.35 902.205 200.842 902.205ZM201.047 901C201.577 901 202.024 900.896 202.388 900.688C202.755 900.479 203.032 900.21 203.217 899.881C203.407 899.551 203.501 899.205 203.501 898.841V897.614C203.445 897.682 203.32 897.744 203.126 897.801C202.937 897.854 202.717 897.902 202.467 897.943C202.221 897.981 201.981 898.015 201.746 898.045C201.515 898.072 201.327 898.095 201.183 898.114C200.835 898.159 200.509 898.233 200.206 898.335C199.907 898.434 199.664 898.583 199.479 898.784C199.297 898.981 199.206 899.25 199.206 899.591C199.206 900.057 199.378 900.409 199.723 900.648C200.071 900.883 200.513 901 201.047 901ZM214.114 893.273L210.886 902H209.523L206.295 893.273H207.75L210.159 900.227H210.25L212.659 893.273H214.114ZM220.565 902V890.364H224.634C225.444 890.364 226.113 890.504 226.639 890.784C227.166 891.061 227.558 891.434 227.815 891.903C228.073 892.369 228.202 892.886 228.202 893.455C228.202 893.955 228.113 894.367 227.935 894.693C227.76 895.019 227.529 895.277 227.241 895.466C226.957 895.655 226.649 895.795 226.315 895.886V896C226.671 896.023 227.029 896.148 227.389 896.375C227.749 896.602 228.05 896.928 228.293 897.352C228.535 897.777 228.656 898.295 228.656 898.909C228.656 899.492 228.524 900.017 228.259 900.483C227.993 900.949 227.575 901.318 227.003 901.591C226.431 901.864 225.687 902 224.77 902H220.565ZM221.974 900.75H224.77C225.69 900.75 226.344 900.572 226.73 900.216C227.12 899.856 227.315 899.42 227.315 898.909C227.315 898.515 227.215 898.152 227.014 897.818C226.813 897.481 226.527 897.212 226.156 897.011C225.785 896.807 225.346 896.705 224.838 896.705H221.974V900.75ZM221.974 895.477H224.588C225.012 895.477 225.395 895.394 225.736 895.227C226.08 895.061 226.353 894.826 226.554 894.523C226.759 894.22 226.861 893.864 226.861 893.455C226.861 892.943 226.683 892.509 226.327 892.153C225.971 891.794 225.406 891.614 224.634 891.614H221.974V895.477ZM233.358 902.205C232.805 902.205 232.303 902.1 231.852 901.892C231.402 901.68 231.044 901.375 230.778 900.977C230.513 900.576 230.381 900.091 230.381 899.523C230.381 899.023 230.479 898.617 230.676 898.307C230.873 897.992 231.136 897.746 231.466 897.568C231.795 897.39 232.159 897.258 232.557 897.17C232.958 897.08 233.362 897.008 233.767 896.955C234.297 896.886 234.727 896.835 235.057 896.801C235.39 896.763 235.633 896.701 235.784 896.614C235.939 896.527 236.017 896.375 236.017 896.159V896.114C236.017 895.553 235.864 895.117 235.557 894.807C235.254 894.496 234.794 894.341 234.176 894.341C233.536 894.341 233.034 894.481 232.67 894.761C232.307 895.042 232.051 895.341 231.903 895.659L230.631 895.205C230.858 894.674 231.161 894.261 231.54 893.966C231.922 893.667 232.339 893.458 232.79 893.341C233.244 893.22 233.691 893.159 234.131 893.159C234.411 893.159 234.733 893.193 235.097 893.261C235.464 893.326 235.818 893.46 236.159 893.665C236.504 893.869 236.79 894.178 237.017 894.591C237.244 895.004 237.358 895.557 237.358 896.25V902H236.017V900.818H235.949C235.858 901.008 235.706 901.21 235.494 901.426C235.282 901.642 235 901.826 234.648 901.977C234.295 902.129 233.866 902.205 233.358 902.205ZM233.562 901C234.093 901 234.54 900.896 234.903 900.688C235.271 900.479 235.547 900.21 235.733 899.881C235.922 899.551 236.017 899.205 236.017 898.841V897.614C235.96 897.682 235.835 897.744 235.642 897.801C235.453 897.854 235.233 897.902 234.983 897.943C234.737 897.981 234.496 898.015 234.261 898.045C234.03 898.072 233.843 898.095 233.699 898.114C233.35 898.159 233.025 898.233 232.722 898.335C232.422 898.434 232.18 898.583 231.994 898.784C231.813 898.981 231.722 899.25 231.722 899.591C231.722 900.057 231.894 900.409 232.239 900.648C232.587 900.883 233.028 901 233.562 901ZM239.805 902V893.273H241.101V894.591H241.192C241.351 894.159 241.639 893.809 242.055 893.54C242.472 893.271 242.942 893.136 243.464 893.136C243.563 893.136 243.686 893.138 243.834 893.142C243.982 893.146 244.093 893.152 244.169 893.159V894.523C244.124 894.511 244.019 894.494 243.857 894.472C243.697 894.445 243.529 894.432 243.351 894.432C242.927 894.432 242.548 894.521 242.214 894.699C241.885 894.873 241.624 895.116 241.43 895.426C241.241 895.733 241.146 896.083 241.146 896.477V902H239.805Z" fill="black"/>
</g>
<defs>
<clipPath id="clip0_71_461">
<rect width="430" height="932" fill="white"/>
</clipPath>
</defs>
</svg>
